<svg width="258" height="83" viewBox="0 0 258 83" fill="none" xmlns="http://www.w3.org/2000/svg">
<rect width="258" height="83" rx="16" fill="url(#paint0_linear_125_124)"/>
<g clip-path="url(#clip0_125_124)">
<path d="M42.6183 40.3126C42.496 40.3125 42.3768 40.3508 42.2773 40.422C42.1778 40.4931 42.1032 40.5937 42.0638 40.7095C42.0244 40.8254 42.022 40.9505 42.0575 41.0676C42.0929 41.1847 42.1643 41.2878 42.2613 41.3623C45.209 43.6192 47.3751 46.9475 47.3751 51.4361C47.3751 51.5131 47.3904 51.5894 47.4199 51.6606C47.4495 51.7318 47.4928 51.7964 47.5474 51.8508C47.602 51.9052 47.6668 51.9483 47.7381 51.9776C47.8094 52.0069 47.8857 52.0218 47.9628 52.0215L50.8157 52.0121C51.1377 52.0121 51.3988 51.7486 51.3988 51.4266C51.3988 48.9719 50.6635 46.2455 49.2046 44.0823C47.3429 41.3845 45.0801 40.3226 42.6183 40.3126ZM36.1616 33.2867C36.035 33.2902 35.9129 33.3344 35.8137 33.4131C34.5245 34.4358 34.1142 35.31 33.8707 36.0137C33.8455 36.0864 33.8349 36.1633 33.8395 36.2401C33.8441 36.3169 33.8637 36.392 33.8973 36.4612C33.9309 36.5304 33.9781 36.5923 34.0356 36.6433C34.0932 36.6943 34.1602 36.7335 34.2329 36.7586C34.3056 36.7838 34.3825 36.7944 34.4593 36.7898C34.5361 36.7852 34.6111 36.7655 34.6802 36.7319C34.7494 36.6983 34.8113 36.6514 34.8623 36.5938C34.9134 36.5363 34.9527 36.4693 34.9778 36.3966C35.1652 35.8568 35.4513 35.3639 36.1779 34.6953C36.9155 35.3727 37.1832 35.8545 37.3805 36.4036C37.4055 36.4772 37.4447 36.545 37.4963 36.6031C37.5478 36.6613 37.6106 36.7086 37.6806 36.7424C37.7507 36.7761 37.8266 36.7955 37.9042 36.7995C37.9818 36.8036 38.0595 36.7921 38.1326 36.7658C38.2057 36.7395 38.2728 36.6989 38.3301 36.6464C38.3874 36.594 38.4336 36.5306 38.4662 36.4601C38.4987 36.3895 38.5169 36.3132 38.5197 36.2355C38.5224 36.1579 38.5097 36.0805 38.4822 36.0078C38.2387 35.3287 37.857 34.46 36.5421 33.4138C36.4341 33.3279 36.2994 33.2829 36.1616 33.2867ZM27.2001 35.6285C27.0844 35.6332 26.9727 35.672 26.8791 35.7401C26.7855 35.8083 26.7144 35.9028 26.6744 36.0114C26.1106 37.5476 26.1885 38.5018 26.3197 39.2359C26.3333 39.3116 26.3616 39.3839 26.4031 39.4486C26.4447 39.5133 26.4986 39.5692 26.5618 39.6131C26.6249 39.657 26.6959 39.6881 26.771 39.7044C26.8462 39.7208 26.924 39.7223 26.9997 39.7087C27.0754 39.6951 27.1477 39.6667 27.2124 39.6251C27.2771 39.5836 27.3329 39.5298 27.3768 39.4666C27.4207 39.4035 27.4519 39.3324 27.4683 39.2572C27.4846 39.1821 27.4859 39.1044 27.4723 39.0287C27.3716 38.4666 27.375 37.8824 27.6449 36.941C28.4997 37.1559 28.9312 37.4276 29.3369 37.7988C29.3937 37.8506 29.4601 37.8907 29.5325 37.917C29.6048 37.9432 29.6817 37.955 29.7586 37.9515C29.8354 37.9481 29.9107 37.9295 29.9804 37.8969C30.0501 37.8644 30.1126 37.8184 30.1645 37.7616C30.2164 37.7048 30.2566 37.6382 30.2828 37.5659C30.3091 37.4936 30.3209 37.4169 30.3174 37.3401C30.314 37.2632 30.2954 37.1878 30.2628 37.1181C30.2302 37.0484 30.1841 36.9859 30.1273 36.934C29.6121 36.4639 28.8822 35.8873 27.3179 35.6349C27.279 35.6286 27.2395 35.6269 27.2001 35.6285ZM46.3137 35.6285C46.279 35.6278 46.2444 35.6301 46.2102 35.6355C44.6459 35.8872 43.9151 36.4639 43.3999 36.9346C43.3413 36.986 43.2936 37.0485 43.2595 37.1185C43.2255 37.1886 43.2058 37.2646 43.2015 37.3424C43.1972 37.4201 43.2085 37.498 43.2346 37.5714C43.2608 37.6447 43.3013 37.7121 43.3539 37.7696C43.4064 37.8271 43.4701 37.8734 43.5408 37.9061C43.6115 37.9387 43.688 37.957 43.7658 37.9597C43.8436 37.9624 43.9211 37.9496 43.9939 37.922C44.0667 37.8943 44.1333 37.8524 44.1897 37.7988C44.5954 37.4282 45.027 37.1565 45.8817 36.941C46.151 37.8824 46.1551 38.4666 46.0544 39.0292C46.0408 39.1049 46.0422 39.1827 46.0587 39.2578C46.0751 39.3329 46.1062 39.4041 46.1501 39.4672C46.1941 39.5303 46.2501 39.584 46.3148 39.6256C46.3795 39.6671 46.4518 39.6955 46.5275 39.709C46.6032 39.7226 46.6808 39.7212 46.7559 39.7047C46.831 39.6883 46.902 39.6572 46.9651 39.6133C47.0283 39.5693 47.0823 39.5133 47.1238 39.4486C47.1653 39.3839 47.1934 39.3116 47.207 39.2359C47.3381 38.5018 47.416 37.5482 46.8522 36.0114C46.8114 35.9008 46.7382 35.805 46.6421 35.7367C46.546 35.6684 46.4316 35.6307 46.3137 35.6285ZM25.1499 42.7053C24.3157 42.5554 23.427 42.7246 21.9154 43.3136C21.7918 43.3616 21.6879 43.4502 21.6212 43.5649C21.5546 43.6795 21.529 43.8134 21.5484 43.9446C21.7884 45.5487 22.3188 46.5195 22.855 47.1313C22.9053 47.1904 22.9668 47.2389 23.036 47.2741C23.1052 47.3092 23.1807 47.3301 23.2581 47.3358C23.3355 47.3415 23.4132 47.3317 23.4868 47.3071C23.5604 47.2824 23.6282 47.2433 23.6866 47.1922C23.745 47.141 23.7926 47.0788 23.8267 47.0091C23.8608 46.9393 23.8807 46.8636 23.8853 46.7861C23.8898 46.7086 23.879 46.631 23.8533 46.5578C23.8275 46.4846 23.7875 46.4172 23.7355 46.3596C23.3977 45.9732 23.0645 45.3035 22.8344 44.2462C23.8584 43.8867 24.4714 43.7731 24.9427 43.8574C25.019 43.8728 25.0976 43.8727 25.1739 43.8573C25.2503 43.8419 25.3228 43.8113 25.3872 43.7675C25.4516 43.7237 25.5066 43.6676 25.549 43.6023C25.5914 43.537 25.6204 43.4639 25.6342 43.3872C25.648 43.3105 25.6463 43.2318 25.6293 43.1558C25.6123 43.0798 25.5804 43.0079 25.5353 42.9444C25.4902 42.8809 25.4328 42.8271 25.3666 42.786C25.3004 42.745 25.2268 42.7175 25.1499 42.7053ZM22.6775 49.0937C22.6175 49.0961 22.5584 49.1077 22.502 49.1282C21.8252 49.3711 20.9593 49.7518 19.9178 51.0626C19.8211 51.1841 19.7767 51.3391 19.7943 51.4934C19.8119 51.6477 19.8903 51.7888 20.0118 51.8854C20.1334 51.9821 20.2883 52.0264 20.4426 52.0088C20.597 51.9912 20.7379 51.913 20.8346 51.7914C21.3755 51.1105 21.7626 50.7985 22.1209 50.5895L22.1266 51.4308C22.1272 51.5076 22.1428 51.5836 22.1727 51.6544C22.2026 51.7253 22.2463 51.7896 22.301 51.8435C22.3558 51.8975 22.4207 51.9401 22.492 51.969C22.5632 51.998 22.6392 52.0126 22.7161 52.0121C22.793 52.0115 22.8691 51.996 22.9399 51.966C23.0107 51.9361 23.0749 51.8924 23.1289 51.8377C23.1829 51.7829 23.2257 51.7181 23.2547 51.6469C23.2836 51.5756 23.2981 51.4995 23.2975 51.4226L23.2858 49.6744C23.2852 49.596 23.2689 49.5186 23.2378 49.4466C23.2067 49.3746 23.1615 49.3097 23.1049 49.2555C23.0482 49.2013 22.9812 49.1591 22.9079 49.1313C22.8346 49.1035 22.7558 49.0907 22.6775 49.0937ZM50.1342 42.1198C50.0566 42.1312 49.9822 42.1582 49.9152 42.1989C49.8482 42.2396 49.7901 42.2933 49.7443 42.357C49.6985 42.4206 49.6659 42.4926 49.6485 42.5691C49.6311 42.6455 49.6293 42.7247 49.6431 42.8019C49.6569 42.8791 49.6858 42.9527 49.7286 43.0184C49.7713 43.0841 49.8268 43.1405 49.8918 43.1844C49.9568 43.2282 50.0301 43.2587 50.107 43.2737C50.184 43.2888 50.263 43.2881 50.3397 43.272C50.8116 43.1877 51.4246 43.3013 52.4485 43.6608C52.2184 44.7181 51.8853 45.3877 51.5469 45.7741C51.4446 45.8911 51.393 46.044 51.4034 46.1991C51.4138 46.3542 51.4854 46.4988 51.6024 46.6011C51.7194 46.7035 51.8721 46.7552 52.0272 46.7448C52.1823 46.7344 52.3268 46.6628 52.4291 46.5458C52.9654 45.9334 53.4949 44.9639 53.7349 43.3592C53.7543 43.228 53.7284 43.0941 53.6617 42.9794C53.595 42.8648 53.4912 42.7762 53.3676 42.7281C51.856 42.1392 50.9685 41.9705 50.1342 42.1198ZM35.0076 49.6797C34.0463 49.6797 33.2512 50.4672 33.2512 51.4279C33.2454 51.8237 33.541 52.0215 33.8367 52.0215H36.1784C36.4741 52.0215 36.7697 51.8237 36.7639 51.4279C36.7639 50.4672 35.9683 49.6797 35.0076 49.6797Z" fill="#FFDA2D"/>
<path d="M35.0078 44.9956C31.4588 44.9956 28.5679 47.8818 28.5679 51.4272C28.5679 51.5825 28.6296 51.7315 28.7394 51.8413C28.8492 51.9511 28.998 52.0126 29.1533 52.0126C29.3086 52.0126 29.4575 51.9511 29.5672 51.8413C29.677 51.7315 29.7388 51.5825 29.7388 51.4272C29.7383 50.7355 29.8742 50.0506 30.139 49.4116C30.4037 48.7726 30.7921 48.1921 31.2816 47.7034C31.771 47.2147 32.3521 46.8273 32.9916 46.5636C33.631 46.2998 34.3161 46.165 35.0078 46.1665C36.4052 46.1665 37.6691 46.7085 38.6105 47.5902L37.7769 48.4239C37.0234 47.7262 36.0346 47.3382 35.0078 47.3374C32.752 47.3374 30.9096 49.175 30.9096 51.4272C30.9096 51.5825 30.9714 51.7315 31.0812 51.8413C31.191 51.9511 31.3398 52.0126 31.4951 52.0126C31.6504 52.0126 31.7992 51.9511 31.909 51.8413C32.0188 51.7315 32.0805 51.5825 32.0805 51.4272C32.0805 49.809 33.3837 48.5083 35.0078 48.5083C36.6318 48.5083 37.9338 49.809 37.9338 51.4272C37.9327 51.5056 37.9475 51.5834 37.977 51.656C38.0065 51.7286 38.0502 51.7945 38.1056 51.8498C38.1611 51.9052 38.2271 51.949 38.2997 51.9783C38.3724 52.0077 38.4503 52.0222 38.5287 52.0209H40.861C40.9387 52.0211 41.0157 52.0058 41.0875 51.9759C41.1592 51.946 41.2241 51.9022 41.2787 51.847C41.3333 51.7917 41.3763 51.7261 41.4053 51.654C41.4343 51.582 41.4487 51.5049 41.4476 51.4272C41.4476 47.8818 38.5567 44.9956 35.0078 44.9956Z" fill="#D42635"/>
<path d="M34.9704 40.3121C33.4832 40.31 32.0107 40.6051 30.6393 41.1802C29.2679 41.7552 28.0251 42.5987 26.9843 43.6609C26.9292 43.7155 26.8857 43.7805 26.8559 43.8521C26.8262 43.9238 26.8108 44.0006 26.811 44.0782C26.8113 44.1558 26.8269 44.2326 26.8571 44.3041C26.8872 44.3755 26.9312 44.4404 26.9866 44.4947C27.042 44.549 27.1077 44.5918 27.1798 44.6205C27.2519 44.6492 27.3289 44.6633 27.4065 44.662C27.4841 44.6606 27.5607 44.6439 27.6317 44.6128C27.7028 44.5816 27.7669 44.5366 27.8204 44.4804L27.9047 44.3961C28.8332 43.4699 29.9351 42.736 31.1476 42.2361C32.36 41.7363 33.659 41.4804 34.9704 41.483C40.4958 41.483 44.9592 45.9294 44.9592 51.4273C44.9592 51.5826 45.021 51.7316 45.1307 51.8414C45.2405 51.9512 45.3894 52.0127 45.5447 52.0127C45.6999 52.0127 45.8488 51.9512 45.9586 51.8414C46.0684 51.7316 46.1301 51.5826 46.1301 51.4273C46.1301 45.2942 41.1257 40.3121 34.9704 40.3121ZM53.1952 49.0938C53.1165 49.0903 53.038 49.1026 52.9642 49.1301C52.8904 49.1576 52.8229 49.1998 52.7658 49.254C52.7087 49.3083 52.6631 49.3734 52.6317 49.4457C52.6004 49.518 52.584 49.5958 52.5834 49.6745L52.5717 51.4227C52.5706 51.578 52.6313 51.7272 52.7404 51.8378C52.8494 51.9483 52.9979 52.0111 53.1532 52.0122C53.3084 52.0132 53.4577 51.9527 53.5682 51.8436C53.6788 51.7346 53.7415 51.5861 53.7426 51.4309L53.7486 50.5896C54.1069 50.7986 54.4937 51.1106 55.0347 51.7909C55.0824 51.8516 55.1415 51.9021 55.2088 51.9398C55.2761 51.9775 55.3503 52.0016 55.4269 52.0106C55.5035 52.0196 55.5811 52.0133 55.6553 51.9922C55.7295 51.971 55.7987 51.9355 55.8591 51.8875C55.9195 51.8395 55.9698 51.7801 56.0072 51.7126C56.0445 51.6451 56.0684 51.571 56.0769 51.4943C56.0855 51.4177 56.0787 51.34 56.0572 51.2659C56.0357 51.1918 55.9997 51.1228 55.9515 51.0627C54.9094 49.7513 54.044 49.3706 53.3673 49.1283C53.3122 49.108 53.2544 49.0963 53.1957 49.0932L53.1952 49.0938Z" fill="#D42635"/>
<path d="M33.6104 42.7656C32.1136 43.0077 30.7049 43.6331 29.5214 44.5808C28.3379 45.5285 27.4196 46.7663 26.856 48.1739C26.8275 48.2453 26.8131 48.3217 26.814 48.3986C26.815 48.4755 26.8312 48.5514 26.8615 48.6221C26.8918 48.6928 26.9356 48.7569 26.9907 48.8107C27.0457 48.8644 27.1111 48.9067 27.1825 48.9353C27.2539 48.9639 27.3303 48.978 27.4072 48.977C27.4841 48.9761 27.56 48.96 27.6307 48.9297C27.7014 48.8994 27.7654 48.8556 27.8191 48.8005C27.8728 48.7455 27.9152 48.6803 27.9437 48.6088C29.2979 45.2191 32.8591 43.2731 36.445 43.9616C40.0308 44.6501 42.6172 47.7781 42.6184 51.4272C42.6184 51.5824 42.6801 51.7314 42.7899 51.8412C42.8997 51.951 43.0486 52.0126 43.2039 52.0126C43.3591 52.0126 43.508 51.951 43.6178 51.8412C43.7276 51.7314 43.7893 51.5824 43.7893 51.4272C43.7893 47.2237 40.7954 43.6057 36.6656 42.8124C35.6577 42.6188 34.6237 42.6032 33.6104 42.7667V42.7656Z" fill="#D42635"/>
<path d="M27.1585 51.0266C27.2423 50.7143 27.057 50.3932 26.7447 50.3095C26.4324 50.2258 26.1113 50.411 26.0276 50.7233C25.9439 51.0356 26.1291 51.3567 26.4414 51.4404C26.7537 51.5242 27.0748 51.3389 27.1585 51.0266Z" fill="black"/>
</g>
<path d="M85.2003 46.8249H79.1127L78.1054 49.7373H74.8864L80.3828 34.4307H83.9521L89.4485 49.7373H86.2076L85.2003 46.8249ZM84.3682 44.3723L82.1565 37.9782L79.9448 44.3723H84.3682ZM90.7146 43.6278C90.7146 42.4015 90.9555 41.3139 91.4372 40.365C91.9336 39.4161 92.5978 38.6862 93.4299 38.1753C94.2767 37.6643 95.2183 37.4088 96.2548 37.4088C97.1599 37.4088 97.9482 37.5913 98.6197 37.9563C99.3059 38.3212 99.8533 38.7811 100.262 39.3358V37.6059H103.35V49.7373H100.262V47.9636C99.8679 48.5329 99.3205 49.0074 98.6197 49.3869C97.9336 49.7519 97.138 49.9344 96.2329 49.9344C95.211 49.9344 94.2767 49.6716 93.4299 49.1461C92.5978 48.6205 91.9336 47.8833 91.4372 46.9344C90.9555 45.9709 90.7146 44.8687 90.7146 43.6278ZM100.262 43.6716C100.262 42.9271 100.116 42.292 99.8241 41.7665C99.5321 41.2264 99.138 40.8176 98.6416 40.5402C98.1453 40.2483 97.6124 40.1023 97.0431 40.1023C96.4737 40.1023 95.9482 40.241 95.4664 40.5183C94.9847 40.7957 94.5905 41.2045 94.284 41.7446C93.992 42.2702 93.846 42.8979 93.846 43.6278C93.846 44.3577 93.992 45.0001 94.284 45.5548C94.5905 46.095 94.9847 46.511 95.4664 46.803C95.9628 47.095 96.4883 47.241 97.0431 47.241C97.6124 47.241 98.1453 47.1023 98.6416 46.8249C99.138 46.5329 99.5321 46.1242 99.8241 45.5986C100.116 45.0585 100.262 44.4161 100.262 43.6716ZM105.556 43.6278C105.556 42.4015 105.796 41.3139 106.278 40.365C106.774 39.4161 107.446 38.6862 108.293 38.1753C109.139 37.6643 110.081 37.4088 111.118 37.4088C111.906 37.4088 112.658 37.584 113.373 37.9344C114.088 38.2702 114.658 38.7227 115.081 39.292V33.5329H118.191V49.7373H115.081V47.9417C114.702 48.5402 114.169 49.022 113.483 49.3869C112.796 49.7519 112.001 49.9344 111.096 49.9344C110.074 49.9344 109.139 49.6716 108.293 49.1461C107.446 48.6205 106.774 47.8833 106.278 46.9344C105.796 45.9709 105.556 44.8687 105.556 43.6278ZM115.103 43.6716C115.103 42.9271 114.957 42.292 114.665 41.7665C114.373 41.2264 113.979 40.8176 113.483 40.5402C112.986 40.2483 112.453 40.1023 111.884 40.1023C111.315 40.1023 110.789 40.241 110.307 40.5183C109.826 40.7957 109.431 41.2045 109.125 41.7446C108.833 42.2702 108.687 42.8979 108.687 43.6278C108.687 44.3577 108.833 45.0001 109.125 45.5548C109.431 46.095 109.826 46.511 110.307 46.803C110.804 47.095 111.329 47.241 111.884 47.241C112.453 47.241 112.986 47.1023 113.483 46.8249C113.979 46.5329 114.373 46.1242 114.665 45.5986C114.957 45.0585 115.103 44.4161 115.103 43.6716ZM128.017 37.4307C128.937 37.4307 129.754 37.6351 130.469 38.0439C131.185 38.438 131.739 39.0293 132.134 39.8176C132.542 40.5913 132.747 41.5256 132.747 42.6205V49.7373H129.681V43.0366C129.681 42.0731 129.44 41.3358 128.958 40.8249C128.477 40.2993 127.82 40.0366 126.988 40.0366C126.141 40.0366 125.469 40.2993 124.973 40.8249C124.491 41.3358 124.25 42.0731 124.25 43.0366V49.7373H121.185V33.5329H124.25V39.1169C124.645 38.5913 125.17 38.1826 125.827 37.8906C126.484 37.584 127.214 37.4307 128.017 37.4307ZM134.874 43.6278C134.874 42.4015 135.115 41.3139 135.596 40.365C136.093 39.4161 136.757 38.6862 137.589 38.1753C138.436 37.6643 139.377 37.4088 140.414 37.4088C141.319 37.4088 142.107 37.5913 142.779 37.9563C143.465 38.3212 144.012 38.7811 144.421 39.3358V37.6059H147.509V49.7373H144.421V47.9636C144.027 48.5329 143.48 49.0074 142.779 49.3869C142.093 49.7519 141.297 49.9344 140.392 49.9344C139.37 49.9344 138.436 49.6716 137.589 49.1461C136.757 48.6205 136.093 47.8833 135.596 46.9344C135.115 45.9709 134.874 44.8687 134.874 43.6278ZM144.421 43.6716C144.421 42.9271 144.275 42.292 143.983 41.7665C143.691 41.2264 143.297 40.8176 142.801 40.5402C142.304 40.2483 141.772 40.1023 141.202 40.1023C140.633 40.1023 140.107 40.241 139.626 40.5183C139.144 40.7957 138.75 41.2045 138.443 41.7446C138.151 42.2702 138.005 42.8979 138.005 43.6278C138.005 44.3577 138.151 45.0001 138.443 45.5548C138.75 46.095 139.144 46.511 139.626 46.803C140.122 47.095 140.647 47.241 141.202 47.241C141.772 47.241 142.304 47.1023 142.801 46.8249C143.297 46.5329 143.691 46.1242 143.983 45.5986C144.275 45.0585 144.421 44.4161 144.421 43.6716ZM153.569 39.4891C153.963 38.8468 154.474 38.3431 155.102 37.9782C155.744 37.6132 156.474 37.4307 157.291 37.4307V40.6497H156.481C155.518 40.6497 154.788 40.876 154.291 41.3285C153.81 41.7811 153.569 42.5694 153.569 43.6935V49.7373H150.503V37.6059H153.569V39.4891ZM170.502 39.1826C170.502 40.0001 170.305 40.7665 169.911 41.4818C169.531 42.1972 168.926 42.7738 168.093 43.2118C167.276 43.6497 166.239 43.8687 164.984 43.8687H162.422V49.7373H159.356V34.4526H164.984C166.166 34.4526 167.174 34.657 168.006 35.0658C168.838 35.4745 169.458 36.0366 169.867 36.7519C170.291 37.4672 170.502 38.2775 170.502 39.1826ZM164.853 41.3942C165.699 41.3942 166.327 41.2045 166.736 40.8249C167.145 40.4307 167.349 39.8833 167.349 39.1826C167.349 37.6935 166.517 36.949 164.853 36.949H162.422V41.3942H164.853ZM183.956 43.4088C183.956 43.8468 183.927 44.241 183.869 44.5913H175C175.073 45.4672 175.38 46.1534 175.92 46.6497C176.46 47.1461 177.124 47.3942 177.912 47.3942C179.051 47.3942 179.861 46.9052 180.343 45.9271H183.65C183.299 47.095 182.628 48.0585 181.635 48.8176C180.642 49.5621 179.423 49.9344 177.978 49.9344C176.81 49.9344 175.759 49.6789 174.825 49.168C173.905 48.6424 173.182 47.9052 172.657 46.9563C172.146 46.0074 171.89 44.9125 171.89 43.6716C171.89 42.4161 172.146 41.3139 172.657 40.365C173.168 39.4161 173.883 38.6862 174.803 38.1753C175.723 37.6643 176.781 37.4088 177.978 37.4088C179.131 37.4088 180.161 37.657 181.066 38.1534C181.985 38.6497 182.693 39.3577 183.19 40.2775C183.701 41.1826 183.956 42.2264 183.956 43.4088ZM180.781 42.5329C180.766 41.7446 180.482 41.1169 179.927 40.6497C179.372 40.168 178.693 39.9271 177.89 39.9271C177.131 39.9271 176.489 40.1607 175.963 40.6278C175.453 41.0804 175.139 41.7154 175.022 42.5329H180.781Z" fill="white"/>
<path d="M239 12C242.858 12 246 15.1416 246 19C246 22.8584 242.858 26 239 26C235.142 26 232 22.8584 232 19C232 15.1416 235.142 12 239 12ZM239 24.88C242.242 24.88 244.88 22.2424 244.88 19C244.88 15.7576 242.242 13.12 239 13.12C235.758 13.12 233.12 15.7576 233.12 19C233.12 22.2424 235.758 24.88 239 24.88ZM237.085 16.2L239.56 19L237.085 21.8C236.878 22.0296 236.9 22.388 237.135 22.5896C237.237 22.6796 237.369 22.7294 237.505 22.7296C237.662 22.7296 237.813 22.668 237.925 22.5392L240.725 19.3696C240.91 19.1568 240.91 18.8376 240.725 18.6304L237.925 15.4608C237.718 15.2312 237.365 15.2088 237.135 15.4104C236.906 15.6176 236.883 15.9704 237.085 16.2Z" fill="white"/>
<defs>
<linearGradient id="paint0_linear_125_124" x1="113" y1="1.75817e-06" x2="113" y2="83" gradientUnits="userSpaceOnUse">
<stop stop-color="#00257A"/>
<stop offset="1" stop-color="#0066CC"/>
</linearGradient>
<clipPath id="clip0_125_124">
<rect width="37.4088" height="37.4088" fill="white" transform="translate(19 22)"/>
</clipPath>
</defs>
</svg>
